<svg width="20" height="25" viewBox="0 0 20 25" fill="none" xmlns="http://www.w3.org/2000/svg">
<path d="M10 24.7903C9.3 24.7903 8.59 24.4841 8.06 23.8833L6.35001 21.9675C5.92001 21.4914 5.35999 21.2307 4.75999 21.2307H4C1.93 21.2307 0.25 19.3375 0.25 17.0136V4.64556C0.25 2.3216 1.93 0.428467 4 0.428467H16C18.07 0.428467 19.75 2.3216 19.75 4.64556V17.0136C19.75 19.3375 18.07 21.2307 16 21.2307H15.24C14.64 21.2307 14.07 21.4914 13.65 21.9675L11.94 23.8833C11.41 24.4841 10.7 24.7903 10 24.7903ZM4 2.11757C2.76 2.11757 1.75 3.25117 1.75 4.63421V17.0022C1.75 18.3966 2.76 19.5189 4 19.5189H4.75999C5.75999 19.5189 6.7 19.9609 7.41 20.7545L9.12 22.6704C9.60999 23.2145 10.4 23.2145 10.89 22.6704L12.6 20.7545C13.31 19.9609 14.25 19.5189 15.25 19.5189H16C17.24 19.5189 18.25 18.3852 18.25 17.0022V4.63421C18.25 3.23984 17.24 2.11757 16 2.11757H4Z" fill="#3A78F2"/>
</svg>
