<svg width="24" height="24" viewBox="0 0 24 24" fill="none" xmlns="http://www.w3.org/2000/svg">
<path d="M17.0089 7.74121H15.7526C15.4794 7.74121 15.2196 7.87246 15.0589 8.09746L10.8481 13.9367L8.94099 11.2903C8.78028 11.068 8.52313 10.9341 8.24724 10.9341H6.99099C6.81689 10.9341 6.7151 11.1323 6.81689 11.2742L10.1544 15.9028C10.2332 16.0129 10.3372 16.1025 10.4576 16.1644C10.578 16.2262 10.7114 16.2585 10.8468 16.2585C10.9822 16.2585 11.1156 16.2262 11.236 16.1644C11.3564 16.1025 11.4604 16.0129 11.5392 15.9028L17.1803 8.08139C17.2847 7.93943 17.183 7.74121 17.0089 7.74121Z" fill="#1D2225"/>
<path d="M12 0C5.37321 0 0 5.37321 0 12C0 18.6268 5.37321 24 12 24C18.6268 24 24 18.6268 24 12C24 5.37321 18.6268 0 12 0ZM12 21.9643C6.49821 21.9643 2.03571 17.5018 2.03571 12C2.03571 6.49821 6.49821 2.03571 12 2.03571C17.5018 2.03571 21.9643 6.49821 21.9643 12C21.9643 17.5018 17.5018 21.9643 12 21.9643Z" fill="#1D2225"/>
</svg>
